# xmcd CD database file
#
# Track frame offsets:
#	150
#	24450
#	46255
#	63759
#	78337
#	96038
#	114548
#	128460
#	152760
#
# Disc length: 2298 seconds
#
# Revision: 0
# Processed by: cddbd v1.5.2PL0 Copyright (c) Steve Scherf et al.
# Submitted via: CDex 1.51
#
DISCID=6008f809
DTITLE=Veronica Bishop - Tell Old I Aint Here
DYEAR=2010
DGENRE=Jazz
TTITLE0=Tell Old I Aint Here
TTITLE1=Golden Oldies
TTITLE2=Another Man Than Gone
TTITLE3=Take the Ribbon from Your Hair
TTITLE4=Never Get Married on a Rainy Day
TTITLE5=Dont be the Other Woman
TTITLE6=Behold
TTITLE7=Tell Old I aint Here
TTITLE8=Woman will Rule
EXTD=YEAR: 2010
EXTT0=
EXTT1=
EXTT2=
EXTT3=
EXTT4=
EXTT5=
EXTT6=
EXTT7=
EXTT8=
PLAYORDER=
